# xmcd
#
# Track frame offsets:
#	150
#	12193
#	30193
#	43840
#	46006
#	63511
#	89002
#	112949
#	133052
#	154170
#	170830
#
# Disc length: 2504 seconds
#
# Revision: 0
# Processed by: cddbd v1.5.1PL2 Copyright (c) Steve Scherf et al.
# Submitted via: audiograbber 1.83.01
#
DISCID=8a09c60b
DTITLE=Eigen Sampler Vol.1 - Dance mix Cd mixed by Dj Black Sann
DYEAR=2006
DGENRE=Dance
TTITLE0=Beatfreakz - Somebody's Watching me (HI-Tack Radio Edit)
TTITLE1=Groove Coverage - 21st Century Digital Girl (Extended Version)
TTITLE2=Banaroo - Sind and Move (Album Version)
TTITLE3=Faithless - insomnia (intro mix)
TTITLE4=Madonna - Sorry (Dj Dance Radio Mix)
TTITLE5=Faithless - insomnia (Original MIX)
TTITLE6=Snap - Rhythm Is A Dancer (Extended Version)
TTITLE7=Rihanna - SOS (Radio Edit)
TTITLE8=Missy Elliott (Feat.Ciara and Fat Man Scoop) - Lose Control (Explicit Ver
TTITLE8=sion)
TTITLE9=Goleo VI-Pres.(Feat.Fatman Scoop vs.Lumidee) - Dance (Club mix)
TTITLE10=Sean Paul - Temperature
EXTD=
EXTT0=
EXTT1=
EXTT2=
EXTT3=
EXTT4=
EXTT5=
EXTT6=
EXTT7=
EXTT8=
EXTT9=
EXTT10=
PLAYORDER=
